<svg width="16" height="16" viewBox="0 0 16 16" fill="none" xmlns="http://www.w3.org/2000/svg">
<path d="M16 8C16 12.4183 12.4183 16 8 16C3.58172 16 0 12.4183 0 8C0 3.58172 3.58172 0 8 0C12.4183 0 16 3.58172 16 8Z" fill="#5BDEE3"/>
<path d="M14.2858 8C14.2858 11.4715 11.4716 14.2857 8.00007 14.2857C4.52857 14.2857 1.71436 11.4715 1.71436 8C1.71436 4.52849 4.52857 1.71428 8.00007 1.71428C11.4716 1.71428 14.2858 4.52849 14.2858 8Z" fill="#101010"/>
<path d="M8.1026 11.18C7.08244 11.18 6.26331 10.871 5.64522 10.2529C5.02712 9.62878 4.71807 8.82766 4.71807 7.84951C4.71807 6.87135 5.02712 6.07323 5.64522 5.45513C6.26331 4.83103 7.08244 4.51898 8.1026 4.51898C9.01475 4.51898 9.75586 4.74402 10.326 5.19409C10.902 5.63816 11.2321 6.23525 11.3161 6.98537H9.76786C9.68385 6.62531 9.49782 6.34327 9.20978 6.13924C8.92173 5.9292 8.55567 5.82419 8.1116 5.82419C7.52351 5.82419 7.06444 6.00722 6.73439 6.37327C6.40434 6.73333 6.23931 7.22541 6.23931 7.84951C6.23931 8.4736 6.40434 8.96868 6.73439 9.33474C7.06444 9.6948 7.52351 9.87482 8.1116 9.87482C8.55567 9.87482 8.92173 9.77281 9.20978 9.56878C9.49782 9.35874 9.68385 9.0737 9.76786 8.71364H11.3161C11.2321 9.46376 10.902 10.0639 10.326 10.5139C9.75586 10.958 9.01475 11.18 8.1026 11.18Z" fill="#5BDEE3"/>
</svg>
