<svg width="18" height="20" viewBox="0 0 18 20" fill="none" xmlns="http://www.w3.org/2000/svg">
<g clip-path="url(#clip0_5_1385)">
<path d="M14.175 6.51511C14.175 5.12876 13.6298 3.79918 12.6593 2.81887C11.6888 1.83857 10.3725 1.28784 9.00005 1.28784C7.62755 1.28784 6.31127 1.83857 5.34077 2.81887C4.37027 3.79918 3.82505 5.12876 3.82505 6.51511C3.82505 12.6136 1.23755 14.356 1.23755 14.356H16.7625C16.7625 14.356 14.175 12.6136 14.175 6.51511Z" stroke="#505050" stroke-width="1.5" stroke-linecap="round" stroke-linejoin="round"/>
<path d="M10.4922 17.8409C10.3405 18.105 10.1229 18.3242 9.86103 18.4765C9.59916 18.6289 9.30226 18.7091 9.00006 18.7091C8.69786 18.7091 8.40096 18.6289 8.13909 18.4765C7.87722 18.3242 7.65957 18.105 7.50793 17.8409" stroke="#505050" stroke-width="1.5" stroke-linecap="round" stroke-linejoin="round"/>
</g>
<defs>
<clipPath id="clip0_5_1385">
<rect width="18" height="20" fill="white"/>
</clipPath>
</defs>
</svg>
