<svg width="20" height="20" viewBox="0 0 20 20" fill="none" xmlns="http://www.w3.org/2000/svg">
<g clip-path="url(#clip0_3_493)">
<path d="M15.9188 8.11621L11.8895 4.08816M2.43399 18.478C2.50703 18.4871 2.58006 18.4871 2.65309 18.478L6.30483 17.5653C6.46683 17.5269 6.61521 17.4448 6.73391 17.3281L17.9539 6.07521C18.294 5.73322 18.4848 5.2706 18.4848 4.78839C18.4848 4.30617 18.294 3.84355 17.9539 3.50156L16.5114 2.05047C16.3419 1.88076 16.1405 1.74613 15.9188 1.65427C15.6972 1.56242 15.4596 1.51514 15.2196 1.51514C14.9797 1.51514 14.7421 1.56242 14.5204 1.65427C14.2988 1.74613 14.0974 1.88076 13.9278 2.05047L2.70787 13.2668C2.58991 13.386 2.50497 13.5338 2.46138 13.6958L1.54844 17.3463C1.51563 17.4644 1.50695 17.5879 1.52291 17.7094C1.53887 17.8309 1.57915 17.948 1.64135 18.0536C1.70354 18.1592 1.78638 18.2512 1.88492 18.3241C1.98346 18.397 2.09568 18.4494 2.21489 18.478C2.28792 18.4871 2.36096 18.4871 2.43399 18.478Z" stroke="white" stroke-width="1.5"/>
</g>
<defs>
<clipPath id="clip0_3_493">
<rect width="20" height="20" fill="white"/>
</clipPath>
</defs>
</svg>
