<svg width="20" height="20" viewBox="0 0 20 20" fill="none" xmlns="http://www.w3.org/2000/svg">
<g clip-path="url(#clip0_5_1382)">
<path d="M7.38014 18.7862C5.86399 18.3336 4.49087 17.4961 3.39447 16.3552C3.74715 15.9369 3.96702 15.4229 4.02595 14.8789C4.08487 14.3349 3.98018 13.7857 3.72525 13.3015C3.47032 12.8173 3.07676 12.4202 2.5949 12.161C2.11304 11.9017 1.5648 11.7921 1.0203 11.8462C0.707298 10.3192 0.787096 8.73772 1.25222 7.25H1.29164C1.75898 7.25007 2.21864 7.13103 2.62721 6.90413C3.03579 6.67723 3.37979 6.34994 3.62675 5.95317C3.87371 5.5564 4.01548 5.10324 4.03867 4.63647C4.06186 4.16969 3.96571 3.70471 3.7593 3.28541C4.83389 2.28423 6.13366 1.55637 7.5488 1.16333C7.77888 1.61568 8.12964 1.99554 8.56225 2.26086C8.99487 2.52619 9.49247 2.66662 9.99997 2.66662C10.5075 2.66662 11.0051 2.52619 11.4377 2.26086C11.8703 1.99554 12.2211 1.61568 12.4511 1.16333C13.8662 1.55611 15.1659 2.28364 16.2406 3.2845C16.0325 3.70676 15.9363 4.17539 15.9611 4.64551C15.986 5.11563 16.1311 5.57149 16.3826 5.96945C16.6341 6.36741 16.9836 6.69414 17.3975 6.91835C17.8115 7.14257 18.2761 7.25676 18.7468 7.25C19.2127 8.73785 19.2931 10.3196 18.9806 11.8471C18.4361 11.793 17.8878 11.9026 17.406 12.1619C16.9241 12.4212 16.5305 12.8183 16.2756 13.3024C16.0207 13.7866 15.916 14.3358 15.9749 14.8798C16.0338 15.4238 16.2537 15.9378 16.6064 16.3562C15.5096 17.4968 14.1362 18.334 12.6198 18.7862C12.442 18.2311 12.0925 17.7468 11.6216 17.4032C11.1507 17.0596 10.5829 16.8744 9.99997 16.8744C9.41705 16.8744 8.84921 17.0596 8.37834 17.4032C7.90747 17.7468 7.55793 18.2311 7.38014 18.7862Z" stroke="#505050" stroke-width="1.5" stroke-linejoin="round"/>
<path d="M9.99996 13.2083C10.4213 13.2083 10.8385 13.1253 11.2277 12.9641C11.617 12.8028 11.9707 12.5665 12.2686 12.2686C12.5665 11.9707 12.8028 11.617 12.9641 11.2277C13.1253 10.8385 13.2083 10.4213 13.2083 9.99996C13.2083 9.57864 13.1253 9.16144 12.9641 8.77218C12.8028 8.38293 12.5665 8.02925 12.2686 7.73133C11.9707 7.4334 11.617 7.19708 11.2277 7.03585C10.8385 6.87461 10.4213 6.79163 9.99996 6.79163C9.14906 6.79163 8.333 7.12965 7.73133 7.73133C7.12965 8.333 6.79163 9.14906 6.79163 9.99996C6.79163 10.8509 7.12965 11.6669 7.73133 12.2686C8.333 12.8703 9.14906 13.2083 9.99996 13.2083Z" stroke="#505050" stroke-width="1.5" stroke-linejoin="round"/>
</g>
<defs>
<clipPath id="clip0_5_1382">
<rect width="20" height="20" fill="white"/>
</clipPath>
</defs>
</svg>
