<svg width="22" height="22" viewBox="0 0 22 22" fill="none" xmlns="http://www.w3.org/2000/svg">
<g clip-path="url(#clip0_3_521)">
<path d="M1.4375 11C1.4375 5.82381 5.82381 1.4375 11 1.4375C16.1762 1.4375 20.5625 5.82381 20.5625 11C20.5625 16.1762 16.1762 20.5625 11 20.5625C5.82381 20.5625 1.4375 16.1762 1.4375 11Z" stroke="white" stroke-width="1.5"/>
<path d="M5.5625 11C5.5625 8.00181 8.00181 5.5625 11 5.5625C13.9982 5.5625 16.4375 8.00181 16.4375 11C16.4375 13.9982 13.9982 16.4375 11 16.4375C8.00181 16.4375 5.5625 13.9982 5.5625 11Z" stroke="white" stroke-width="1.5"/>
<path d="M11 8.9375C9.88522 8.9375 8.9375 9.88522 8.9375 11C8.9375 12.1148 9.88522 13.0625 11 13.0625C12.1148 13.0625 13.0625 12.1148 13.0625 11C13.0625 9.88522 12.1148 8.9375 11 8.9375Z" fill="white"/>
</g>
<defs>
<clipPath id="clip0_3_521">
<rect width="22" height="22" fill="white"/>
</clipPath>
</defs>
</svg>
